# xmcd
#
# Track frame offsets:
#	225
#	18430
#	37005
#	56562
#	75795
#	94805
#	113595
#	132067
#	157625
#	178810
#	200810
#	221597
#	238285
#	259810
#	283962
#	306987
#
# Disc length: 4390
#
# Revision: 1
# Processed by: cddbd v1.5.1PL0 Copyright (c) Steve Scherf et al.
# Submitted via: dBpowerAMP V4.0
# Normalized: r0:DSETVAR1,TDELIM( - )
#
DISCID=e0112310
DTITLE=Various Artist - Clubtracks 9
DYEAR=1996
DGENRE=R&B
TTITLE0=Babyface and LL Cool J - This Is For The Lover In You
TTITLE1=Ginuwine - Holler
TTITLE2=702 - Show You My Love
TTITLE3=Blackstreet - Let's Stay In Love
TTITLE4=Dru Hill - Tell Me
TTITLE5=Billy Lawrence and MC Lyte - Come On
TTITLE6=Kaycee Crogan - It's Alright
TTITLE7=Johnny Gill - Maybe
TTITLE8=New Edition - I'm Still In Love With You
TTITLE9=Aaliyah - 4 Page Letter
TTITLE10=Ruffa - Keep Running
TTITLE11=Jason Weaver - Stay With Me
TTITLE12=Donell Jones - All About You
TTITLE13=Mint Condition - You Don't Have To Hurt No More
TTITLE14=Soul For Real - I'm Coming Home
TTITLE15=K-Ci and Jojo - How Could You
EXTD=
EXTT0=
EXTT1=
EXTT2=
EXTT3=
EXTT4=
EXTT5=
EXTT6=
EXTT7=
EXTT8=
EXTT9=
EXTT10=
EXTT11=
EXTT12=
EXTT13=
EXTT14=
EXTT15=
PLAYORDER=
